<svg xmlns="http://www.w3.org/2000/svg" viewBox="0 0 512 512" role="img" aria-label="NodeWeave">
  <defs>
    <linearGradient id="bg" x1="0" y1="0" x2="1" y2="1">
      <stop offset="0" stop-color="#0b0813"/>
      <stop offset="1" stop-color="#17122a"/>
    </linearGradient>
    <linearGradient id="glass" x1="0" y1="0" x2="1" y2="1">
      <stop offset="0" stop-color="#ffffff" stop-opacity=".18"/>
      <stop offset="1" stop-color="#ffffff" stop-opacity=".05"/>
    </linearGradient>
    <linearGradient id="mark" x1="0" y1="0" x2="1" y2="0">
      <stop offset="0" stop-color="#f8fafc"/>
      <stop offset="1" stop-color="#a78bfa"/>
    </linearGradient>
    <radialGradient id="cyanGlow" cx="78%" cy="14%" r="60%">
      <stop offset="0" stop-color="#06b6d4" stop-opacity=".38"/>
      <stop offset="1" stop-color="#06b6d4" stop-opacity="0"/>
    </radialGradient>
    <radialGradient id="purpleGlow" cx="12%" cy="28%" r="68%">
      <stop offset="0" stop-color="#7c3aed" stop-opacity=".42"/>
      <stop offset="1" stop-color="#7c3aed" stop-opacity="0"/>
    </radialGradient>
    <filter id="softShadow" x="-30%" y="-30%" width="160%" height="160%">
      <feDropShadow dx="0" dy="18" stdDeviation="22" flood-color="#000000" flood-opacity=".32"/>
    </filter>
  </defs>
  <rect width="512" height="512" fill="url(#bg)"/>
  <rect width="512" height="512" fill="url(#cyanGlow)"/>
  <rect width="512" height="512" fill="url(#purpleGlow)"/>
  <rect x="48" y="48" width="416" height="416" rx="82" fill="url(#glass)" stroke="#ffffff" stroke-opacity=".34" stroke-width="2" filter="url(#softShadow)"/>
  <path d="M146 161a134 134 0 0 1 230 0 134 134 0 0 1-20 157" fill="none" stroke="#22d3ee" stroke-width="5" stroke-linecap="round"/>
  <path d="M367 295a114 114 0 1 1-64-160" fill="none" stroke="#a78bfa" stroke-width="5" stroke-linecap="round" opacity=".92"/>
  <g stroke="#ffffff" stroke-opacity=".48" stroke-width="3">
    <path d="M156 174 256 122 356 174 328 312 256 360 184 312Z" fill="none"/>
    <path d="M156 174 328 312M356 174 184 312"/>
  </g>
  <text x="256" y="264" text-anchor="middle" font-family="Segoe UI Black, Arial, sans-serif" font-size="104" font-weight="900" fill="url(#mark)" stroke="#06b6d4" stroke-opacity=".42" stroke-width="3">NW</text>
  <g>
    <circle cx="156" cy="174" r="12" fill="#60a5fa" stroke="#e0f2fe" stroke-width="2"/>
    <circle cx="256" cy="122" r="12" fill="#60a5fa" stroke="#e0f2fe" stroke-width="2"/>
    <circle cx="356" cy="174" r="12" fill="#60a5fa" stroke="#e0f2fe" stroke-width="2"/>
    <circle cx="328" cy="312" r="12" fill="#60a5fa" stroke="#e0f2fe" stroke-width="2"/>
    <circle cx="184" cy="312" r="12" fill="#60a5fa" stroke="#e0f2fe" stroke-width="2"/>
    <circle cx="256" cy="360" r="12" fill="#60a5fa" stroke="#e0f2fe" stroke-width="2"/>
  </g>
  <text x="256" y="426" text-anchor="middle" font-family="Segoe UI Semibold, Arial, sans-serif" font-size="32" font-weight="800" fill="#f8fafc">NodeWeave</text>
  <text x="256" y="455" text-anchor="middle" font-family="Segoe UI, Arial, sans-serif" font-size="17" fill="#cbd5e1" opacity=".72">community auth</text>
</svg>
